<svg xmlns="http://www.w3.org/2000/svg" width="100" height="38" fill="none" viewBox="0 0 100 38"><path fill="#969286" d="M13.7109 0.452148C14.9121 0.452148 16.1377 0.564453 17.3877 0.789062C18.6377 1.00391 19.8535 1.33594 21.0352 1.78516C22.2168 2.23438 23.3301 2.80078 24.375 3.48438C25.4199 4.1582 26.333 4.94922 27.1143 5.85742C27.8955 6.76562 28.5107 7.79102 28.96 8.93359C29.4189 10.0762 29.6484 11.3408 29.6484 12.7275C29.6484 14.1143 29.4043 15.3984 28.916 16.5801C28.4277 17.7617 27.7441 18.7822 26.8652 19.6416C25.9863 20.501 24.9365 21.1748 23.7158 21.6631C22.4951 22.1514 21.1523 22.3955 19.6875 22.3955C18.9941 22.3955 18.2764 22.3418 17.5342 22.2344C16.792 22.1367 16.0498 21.9805 15.3076 21.7656C14.5654 21.5508 13.833 21.2871 13.1104 20.9746C12.3975 20.6523 11.7139 20.2715 11.0596 19.832C10.2881 20.5938 9.39453 21.1895 8.37891 21.6191C7.37305 22.0391 6.30859 22.249 5.18555 22.249C4.58008 22.249 4.01367 22.1807 3.48633 22.0439C2.95898 21.9072 2.5 21.7119 2.10938 21.458C1.72852 21.2041 1.42578 20.8965 1.20117 20.5352C0.986328 20.1738 0.878906 19.7734 0.878906 19.334C0.878906 18.9531 0.97168 18.5967 1.15723 18.2646C1.35254 17.9326 1.62109 17.6396 1.96289 17.3857C2.31445 17.1318 2.72949 16.9316 3.20801 16.7852C3.69629 16.6387 4.22852 16.5654 4.80469 16.5654C6.50391 16.5654 8.51562 17.1904 10.8398 18.4404C11.2695 17.9033 11.6211 17.2979 11.8945 16.624C12.1973 15.8721 12.4316 15.1006 12.5977 14.3096C12.7734 13.5088 12.9248 12.7129 13.0518 11.9219C13.1885 11.1309 13.3252 10.3594 13.4619 9.60742C13.6084 8.85547 13.8037 8.14746 14.0479 7.4834C14.3018 6.81934 14.6289 6.21387 15.0293 5.66699C15.4395 5.11035 15.9717 4.63672 16.626 4.24609C16.7236 4.19727 16.8115 4.17285 16.8896 4.17285C17.0264 4.17285 17.1533 4.22168 17.2705 4.31934C17.3975 4.41699 17.4609 4.55371 17.4609 4.72949C17.4609 4.93457 17.3682 5.09082 17.1826 5.19824C16.665 5.50098 16.2402 5.88184 15.9082 6.34082C15.5859 6.79004 15.3174 7.29785 15.1025 7.86426C14.8877 8.43066 14.7168 9.04102 14.5898 9.69531C14.4629 10.3496 14.3408 11.0332 14.2236 11.7461C14.126 12.332 14.0186 12.9473 13.9014 13.5918C13.7842 14.2266 13.6377 14.8613 13.4619 15.4961C13.2861 16.1211 13.0615 16.7363 12.7881 17.3418C12.5244 17.9375 12.1973 18.4893 11.8066 18.9971C11.8262 19.0068 11.8359 19.0166 11.8359 19.0264C11.8457 19.0264 11.8604 19.0312 11.8799 19.041C13.1201 19.7832 14.4092 20.3447 15.7471 20.7256C17.085 21.1064 18.3936 21.2969 19.6729 21.2969C21.0596 21.2969 22.2998 21.0674 23.3936 20.6084C24.4971 20.1494 25.4297 19.5342 26.1914 18.7627C26.9531 17.9814 27.5342 17.0732 27.9346 16.0381C28.335 15.0029 28.5352 13.9092 28.5352 12.7568C28.5352 11.585 28.3398 10.4961 27.9492 9.49023C27.5586 8.47461 27.0215 7.55176 26.3379 6.72168C25.6641 5.8916 24.8584 5.1543 23.9209 4.50977C22.9932 3.86523 21.9873 3.32812 20.9033 2.89844C19.8291 2.45898 18.6963 2.12695 17.5049 1.90234C16.3232 1.66797 15.1367 1.55078 13.9453 1.55078C12.3438 1.55078 10.8789 1.6875 9.55078 1.96094C8.23242 2.22461 7.09473 2.61523 6.1377 3.13281C5.19043 3.65039 4.45312 4.28516 3.92578 5.03711C3.39844 5.78906 3.13477 6.64355 3.13477 7.60059C3.13477 8.14746 3.21289 8.63086 3.36914 9.05078C3.53516 9.4707 3.74023 9.83691 3.98438 10.1494C4.23828 10.4521 4.51172 10.7109 4.80469 10.9258C5.09766 11.1406 5.37109 11.3164 5.625 11.4531C5.87891 11.5801 6.09375 11.6729 6.26953 11.7314C6.45508 11.79 6.5625 11.8242 6.5918 11.834C6.71875 11.8633 6.81641 11.9316 6.88477 12.0391C6.96289 12.1367 7.00195 12.249 7.00195 12.376C7.00195 12.542 6.94336 12.6689 6.82617 12.7568C6.70898 12.8447 6.58203 12.8887 6.44531 12.8887C6.25 12.8887 6.00586 12.8447 5.71289 12.7568C5.41992 12.6592 5.10742 12.5176 4.77539 12.332C4.45312 12.1367 4.12598 11.8975 3.79395 11.6143C3.47168 11.3213 3.17871 10.9795 2.91504 10.5889C2.65137 10.1982 2.43652 9.75391 2.27051 9.25586C2.11426 8.75781 2.03613 8.20605 2.03613 7.60059C2.03613 6.49707 2.31445 5.50586 2.87109 4.62695C3.4375 3.73828 4.2334 2.98633 5.25879 2.37109C6.28418 1.75586 7.50977 1.28223 8.93555 0.950195C10.3711 0.618164 11.9629 0.452148 13.7109 0.452148ZM10.0488 19.2754C9.0332 18.7383 8.09082 18.333 7.22168 18.0596C6.35254 17.7861 5.55664 17.6494 4.83398 17.6494C4.42383 17.6494 4.04297 17.6982 3.69141 17.7959C3.34961 17.8838 3.05176 18.0059 2.79785 18.1621C2.54395 18.3184 2.34375 18.499 2.19727 18.7041C2.05078 18.9092 1.97754 19.124 1.97754 19.3486C1.97754 19.5635 2.04102 19.7783 2.16797 19.9932C2.30469 20.208 2.50488 20.3984 2.76855 20.5645C3.04199 20.7305 3.37891 20.8672 3.7793 20.9746C4.17969 21.082 4.64844 21.1357 5.18555 21.1357C6.10352 21.1357 6.97754 20.9746 7.80762 20.6523C8.64746 20.3203 9.39453 19.8613 10.0488 19.2754ZM32.9883 20.3887C33.1934 20.6719 33.457 20.9014 33.7793 21.0771C34.1016 21.2432 34.4971 21.3262 34.9658 21.3262C35.4443 21.3262 35.8789 21.2139 36.2695 20.9893C36.6602 20.7549 37.0166 20.4521 37.3389 20.0811C37.6611 19.71 37.9492 19.2949 38.2031 18.8359C38.457 18.377 38.6865 17.918 38.8916 17.459C38.9404 17.3516 39.0088 17.2734 39.0967 17.2246C39.1846 17.166 39.2822 17.1367 39.3896 17.1367C39.5557 17.1367 39.6875 17.1953 39.7852 17.3125C39.8926 17.4297 39.9463 17.5566 39.9463 17.6934C39.9463 17.7422 39.9414 17.7861 39.9316 17.8252C39.9219 17.8545 39.9072 17.8887 39.8877 17.9277C39.2139 19.4121 38.4766 20.5303 37.6758 21.2822C36.8848 22.0342 35.9863 22.4199 34.9805 22.4395C34.3359 22.4395 33.7793 22.3125 33.3105 22.0586C32.8418 21.8145 32.4561 21.4971 32.1533 21.1064C31.8506 20.7061 31.626 20.2568 31.4795 19.7588C31.333 19.2607 31.2598 18.7627 31.2598 18.2646C31.2598 17.7666 31.3184 17.3076 31.4355 16.8877C31.5625 16.4678 31.7383 16.1016 31.9629 15.7891C32.1973 15.4766 32.4707 15.2324 32.7832 15.0566C33.1055 14.8809 33.457 14.793 33.8379 14.793C34.0625 14.793 34.2822 14.8418 34.4971 14.9395C34.7217 15.0273 34.9219 15.1592 35.0977 15.335C35.2734 15.501 35.415 15.7061 35.5225 15.9502C35.6299 16.1943 35.6836 16.4727 35.6836 16.7852C35.6836 17.1855 35.6152 17.5615 35.4785 17.9131C35.3418 18.2646 35.1514 18.5918 34.9072 18.8945C34.6729 19.1973 34.3896 19.4756 34.0576 19.7295C33.7256 19.9834 33.3691 20.2031 32.9883 20.3887ZM32.5488 19.4365C32.8516 19.3096 33.125 19.1484 33.3691 18.9531C33.623 18.7578 33.8379 18.543 34.0137 18.3086C34.1895 18.0742 34.3262 17.8301 34.4238 17.5762C34.5215 17.3125 34.5703 17.0488 34.5703 16.7852C34.5703 16.4922 34.4971 16.2725 34.3506 16.126C34.2041 15.9697 34.0332 15.8916 33.8379 15.8916C33.5742 15.8916 33.3496 15.9648 33.1641 16.1113C32.9785 16.2578 32.8271 16.4482 32.71 16.6826C32.5928 16.917 32.5049 17.1807 32.4463 17.4736C32.3975 17.7568 32.373 18.04 32.373 18.3232C32.373 18.499 32.3877 18.6846 32.417 18.8799C32.4561 19.0752 32.5 19.2607 32.5488 19.4365ZM44.8389 17.3857C44.6924 18.0693 44.4824 18.709 44.209 19.3047C43.9355 19.8906 43.6426 20.4033 43.3301 20.8428C43.0273 21.2822 42.7197 21.6289 42.4072 21.8828C42.0947 22.1367 41.8262 22.2734 41.6016 22.293C41.3477 22.293 41.0645 22.166 40.752 21.9121C40.4492 21.6582 40.1562 21.3066 39.873 20.8574C39.5996 20.3984 39.3701 19.8564 39.1846 19.2314C38.999 18.6064 38.9062 17.9277 38.9062 17.1953C38.9062 16.5508 38.96 16.0625 39.0674 15.7305C39.1846 15.3984 39.2578 15.208 39.2871 15.1592C39.3359 15.0713 39.3994 15.0029 39.4775 14.9541C39.5654 14.9053 39.6631 14.8809 39.7705 14.8809C39.9365 14.8809 40.0684 14.9395 40.166 15.0566C40.2637 15.1641 40.3125 15.2861 40.3125 15.4229C40.3125 15.5205 40.293 15.6035 40.2539 15.6719C40.2441 15.6914 40.2002 15.8232 40.1221 16.0674C40.0439 16.3115 40.0049 16.6777 40.0049 17.166C40.0049 17.7422 40.0635 18.2744 40.1807 18.7627C40.2979 19.251 40.4395 19.6709 40.6055 20.0225C40.7715 20.374 40.9424 20.6523 41.1182 20.8574C41.3037 21.0527 41.4551 21.1504 41.5723 21.1504C41.6504 21.1504 41.7627 21.0771 41.9092 20.9307C42.0654 20.7842 42.2266 20.584 42.3926 20.3301C42.5684 20.0762 42.7441 19.7734 42.9199 19.4219C43.1055 19.0703 43.2715 18.6895 43.418 18.2793C43.5742 17.8594 43.6963 17.4199 43.7842 16.9609C43.8818 16.4922 43.9307 16.0186 43.9307 15.54C43.9307 15.4424 43.9258 15.3496 43.916 15.2617C43.916 15.1641 43.916 15.0664 43.916 14.9688C43.916 14.8027 43.9648 14.666 44.0625 14.5586C44.1699 14.4414 44.3066 14.3828 44.4727 14.3828C44.5996 14.3828 44.7119 14.4219 44.8096 14.5C44.917 14.5781 44.9854 14.6855 45.0146 14.8223C45.0146 14.8125 45.0342 14.8906 45.0732 15.0566C45.1123 15.2227 45.1758 15.4375 45.2637 15.7012C45.3613 15.9551 45.4785 16.2334 45.6152 16.5361C45.7617 16.8389 45.9326 17.1221 46.1279 17.3857C46.333 17.6396 46.5674 17.8545 46.8311 18.0303C47.0947 18.2061 47.3975 18.2939 47.7393 18.2939C47.9248 18.2939 48.0859 18.2549 48.2227 18.1768C48.3594 18.0986 48.4717 18.0107 48.5596 17.9131C48.6475 17.8154 48.7109 17.7227 48.75 17.6348C48.7988 17.5469 48.8232 17.498 48.8232 17.4883C48.8623 17.3809 48.9258 17.2979 49.0137 17.2393C49.1113 17.1709 49.2188 17.1367 49.3359 17.1367C49.4922 17.1367 49.624 17.1953 49.7314 17.3125C49.8389 17.4199 49.8926 17.5469 49.8926 17.6934C49.8926 17.7617 49.8779 17.8301 49.8486 17.8984C49.79 18.0352 49.7021 18.1914 49.585 18.3672C49.4775 18.543 49.3359 18.709 49.1602 18.8652C48.9844 19.0215 48.7744 19.1533 48.5303 19.2607C48.2959 19.3584 48.0322 19.4072 47.7393 19.4072C47.3975 19.4072 47.0801 19.3486 46.7871 19.2314C46.4941 19.1045 46.2256 18.9482 45.9814 18.7627C45.7471 18.5674 45.5322 18.3525 45.3369 18.1182C45.1416 17.874 44.9756 17.6299 44.8389 17.3857ZM51.2256 10.501C51.2256 10.8721 51.0938 11.1895 50.8301 11.4531C50.5762 11.707 50.2637 11.834 49.8926 11.834C49.5215 11.834 49.2041 11.707 48.9404 11.4531C48.6865 11.1895 48.5596 10.8721 48.5596 10.501C48.5596 10.3154 48.5938 10.1445 48.6621 9.98828C48.7305 9.82227 48.8232 9.68066 48.9404 9.56348C49.0674 9.43652 49.209 9.33887 49.3652 9.27051C49.5312 9.20215 49.707 9.16797 49.8926 9.16797C50.0781 9.16797 50.249 9.20215 50.4053 9.27051C50.5713 9.33887 50.7129 9.43652 50.8301 9.56348C50.957 9.68066 51.0547 9.82227 51.123 9.98828C51.1914 10.1445 51.2256 10.3154 51.2256 10.501ZM48.8525 19.085C48.8525 17.6787 48.9404 16.2773 49.1162 14.8809C49.1357 14.7441 49.1943 14.627 49.292 14.5293C49.3994 14.4219 49.5361 14.3682 49.7021 14.3682C49.8486 14.3682 49.9707 14.4268 50.0684 14.5439C50.166 14.6514 50.2148 14.7783 50.2148 14.9248C50.2148 14.9834 50.2002 15.1592 50.1709 15.4521C50.1514 15.7451 50.1221 16.0967 50.083 16.5068C50.0537 16.9072 50.0244 17.3369 49.9951 17.7959C49.9756 18.2451 49.9658 18.6602 49.9658 19.041C49.9658 19.5586 50.0146 19.9785 50.1123 20.3008C50.2197 20.6133 50.3516 20.8574 50.5078 21.0332C50.6738 21.209 50.8447 21.3262 51.0205 21.3848C51.2061 21.4434 51.3818 21.4727 51.5479 21.4727C51.8213 21.4727 52.1045 21.375 52.3975 21.1797C52.6904 20.9844 52.9883 20.7109 53.291 20.3594C53.6035 20.0078 53.916 19.5879 54.2285 19.0996C54.541 18.6016 54.8486 18.0498 55.1514 17.4443C55.2002 17.3467 55.2686 17.2734 55.3564 17.2246C55.4443 17.166 55.542 17.1367 55.6494 17.1367C55.8057 17.1367 55.9326 17.1953 56.0303 17.3125C56.1377 17.4297 56.1914 17.5566 56.1914 17.6934C56.1914 17.791 56.1719 17.874 56.1328 17.9424C56.0156 18.167 55.8691 18.4404 55.6934 18.7627C55.5176 19.085 55.3174 19.417 55.0928 19.7588C54.8682 20.1006 54.6191 20.4424 54.3457 20.7842C54.082 21.1162 53.7988 21.4189 53.4961 21.6924C53.1934 21.9561 52.876 22.1709 52.5439 22.3369C52.2119 22.5029 51.875 22.5859 51.5332 22.5859C51.0938 22.5859 50.708 22.4932 50.376 22.3076C50.0439 22.1221 49.7607 21.873 49.5264 21.5605C49.3018 21.248 49.1309 20.8818 49.0137 20.4619C48.9062 20.0322 48.8525 19.5732 48.8525 19.085ZM50.4053 10.501C50.4053 10.3643 50.3516 10.2471 50.2441 10.1494C50.1465 10.042 50.0293 9.98828 49.8926 9.98828C49.7559 9.98828 49.6387 10.042 49.541 10.1494C49.4434 10.2471 49.3945 10.3643 49.3945 10.501C49.3945 10.6377 49.4434 10.7549 49.541 10.8525C49.6387 10.9502 49.7559 10.999 49.8926 10.999C50.0293 10.999 50.1465 10.9502 50.2441 10.8525C50.3516 10.7549 50.4053 10.6377 50.4053 10.501ZM60.4395 23.4355C62.2754 21.043 63.5498 19.0557 64.2627 17.4736C64.3115 17.3662 64.375 17.2881 64.4531 17.2393C64.541 17.1807 64.6387 17.1514 64.7461 17.1514C64.9121 17.1514 65.0488 17.21 65.1562 17.3271C65.2637 17.4346 65.3174 17.5615 65.3174 17.708C65.3174 17.7764 65.3027 17.8447 65.2734 17.9131C64.8438 18.8896 64.2334 19.9785 63.4424 21.1797C62.6514 22.3809 61.6504 23.7383 60.4395 25.252C60.4395 25.8672 60.4443 26.4824 60.4541 27.0977C60.4639 27.7129 60.4688 28.3867 60.4688 29.1191C60.4688 29.8516 60.4492 30.5742 60.4102 31.2871C60.3809 32.0098 60.3223 32.6934 60.2344 33.3379C60.1465 33.9922 60.0244 34.5928 59.8682 35.1396C59.7217 35.6963 59.5264 36.1748 59.2822 36.5752C59.0479 36.9854 58.7598 37.3027 58.418 37.5273C58.0859 37.7617 57.6904 37.8789 57.2314 37.8789C56.5771 37.8789 56.0742 37.6299 55.7227 37.1318C55.3711 36.6338 55.1953 35.9258 55.1953 35.0078C55.1953 34.5195 55.2393 33.9873 55.3271 33.4111C55.4248 32.8447 55.5615 32.2588 55.7373 31.6533C55.9131 31.0479 56.123 30.4326 56.3672 29.8076C56.6211 29.1924 56.8994 28.5918 57.2021 28.0059C57.5049 27.4199 57.832 26.8584 58.1836 26.3213C58.5449 25.7842 58.9258 25.2959 59.3262 24.8564C59.3359 24.1729 59.3408 23.4941 59.3408 22.8203C59.3506 22.1465 59.3652 21.5264 59.3848 20.96C59.0918 21.3311 58.7402 21.624 58.3301 21.8389C57.9297 22.0537 57.5293 22.1611 57.1289 22.1611C56.7871 22.1611 56.4746 22.0977 56.1914 21.9707C55.918 21.834 55.6836 21.6484 55.4883 21.4141C55.293 21.1699 55.1416 20.8867 55.0342 20.5645C54.9268 20.2422 54.873 19.8906 54.873 19.5098C54.873 18.748 55 18.0791 55.2539 17.5029C55.5176 16.917 55.8496 16.4287 56.25 16.0381C56.6504 15.6475 57.0898 15.3545 57.5684 15.1592C58.0566 14.9639 58.5254 14.8662 58.9746 14.8662C59.2773 14.8662 59.5557 14.9053 59.8096 14.9834C60.0635 15.0615 60.2783 15.1494 60.4541 15.2471C60.6396 15.3447 60.7812 15.4375 60.8789 15.5254C60.9766 15.6133 61.0303 15.6621 61.04 15.6719C61.1475 15.7891 61.2012 15.9209 61.2012 16.0674C61.2012 16.2139 61.1475 16.3457 61.04 16.4629C60.9326 16.5703 60.8057 16.624 60.6592 16.624C60.5225 16.624 60.3906 16.5703 60.2637 16.4629C60.2246 16.4336 60.1709 16.3945 60.1025 16.3457C60.0439 16.2871 59.9609 16.2285 59.8535 16.1699C59.7559 16.1113 59.6338 16.0625 59.4873 16.0234C59.3506 15.9844 59.1846 15.9648 58.9893 15.9648C58.6963 15.9648 58.374 16.0332 58.0225 16.1699C57.6709 16.2969 57.3438 16.502 57.041 16.7852C56.7383 17.0684 56.4844 17.4346 56.2793 17.8838C56.0742 18.3232 55.9717 18.8555 55.9717 19.4805C55.9717 19.9492 56.0742 20.3301 56.2793 20.623C56.4844 20.9062 56.8018 21.0479 57.2314 21.0479C57.4365 21.0479 57.6514 20.9893 57.876 20.8721C58.1104 20.7549 58.335 20.5742 58.5498 20.3301C58.7646 20.0859 58.9502 19.7783 59.1064 19.4072C59.2725 19.0361 59.3896 18.5967 59.458 18.0889C59.4775 17.9521 59.541 17.8398 59.6484 17.752C59.7559 17.6543 59.8828 17.6055 60.0293 17.6055C60.1953 17.6055 60.3223 17.6641 60.4102 17.7812C60.5078 17.8984 60.5566 18.0303 60.5566 18.1768C60.5566 18.1865 60.5518 18.3379 60.542 18.6309C60.5322 18.9141 60.5225 19.2949 60.5127 19.7734C60.5029 20.252 60.4883 20.8086 60.4688 21.4434C60.459 22.0684 60.4492 22.7324 60.4395 23.4355ZM59.3262 26.6436C58.8672 27.2783 58.4521 27.9668 58.0811 28.709C57.71 29.4609 57.3926 30.2178 57.1289 30.9795C56.8652 31.7412 56.6602 32.4785 56.5137 33.1914C56.377 33.9141 56.3086 34.5586 56.3086 35.125C56.3086 35.4863 56.3379 35.7744 56.3965 35.9893C56.4648 36.2041 56.543 36.3701 56.6309 36.4873C56.7285 36.6045 56.8311 36.6826 56.9385 36.7217C57.0557 36.7607 57.1631 36.7803 57.2607 36.7803C57.5635 36.7803 57.8271 36.6582 58.0518 36.4141C58.2764 36.1699 58.4668 35.8428 58.623 35.4326C58.7793 35.0322 58.9062 34.5684 59.0039 34.041C59.1016 33.5137 59.1748 32.9668 59.2236 32.4004C59.2725 31.8438 59.3066 31.2871 59.3262 30.7305C59.3457 30.1738 59.3555 29.6611 59.3555 29.1924C59.3555 28.7725 59.3555 28.3525 59.3555 27.9326C59.3555 27.5127 59.3457 27.083 59.3262 26.6436ZM67.5293 20.6816C67.6855 20.3594 67.8662 20.0078 68.0713 19.627C68.2764 19.2363 68.4961 18.8457 68.7305 18.4551C68.9648 18.0547 69.209 17.6592 69.4629 17.2686C69.7266 16.8779 70 16.5068 70.2832 16.1553C70.5664 15.8135 70.8496 15.5693 71.1328 15.4229C71.4258 15.2666 71.6992 15.1885 71.9531 15.1885C72.4609 15.1885 72.8369 15.374 73.0811 15.7451C73.3252 16.1162 73.4473 16.5752 73.4473 17.1221C73.4473 17.249 73.4375 17.4053 73.418 17.5908C73.4082 17.7666 73.3936 17.957 73.374 18.1621C73.3643 18.3672 73.3496 18.5771 73.3301 18.792C73.3203 18.9971 73.3154 19.1924 73.3154 19.3779C73.3154 19.6123 73.3252 19.8369 73.3447 20.0518C73.374 20.2666 73.4229 20.457 73.4912 20.623C73.5596 20.7793 73.6572 20.9062 73.7842 21.0039C73.9111 21.0918 74.0771 21.1357 74.2822 21.1357C74.6533 21.1357 75.0146 20.9941 75.3662 20.7109C75.7178 20.418 76.04 20.0762 76.333 19.6855C76.6357 19.2852 76.8945 18.8799 77.1094 18.4697C77.334 18.0596 77.5 17.7275 77.6074 17.4736C77.6562 17.3662 77.7246 17.2832 77.8125 17.2246C77.9102 17.166 78.0127 17.1367 78.1201 17.1367C78.2861 17.1367 78.418 17.2002 78.5156 17.3271C78.623 17.4443 78.6768 17.5713 78.6768 17.708C78.6768 17.7764 78.6621 17.8447 78.6328 17.9131C78.5938 17.9912 78.5156 18.1523 78.3984 18.3965C78.2812 18.6406 78.125 18.9238 77.9297 19.2461C77.7441 19.5586 77.5244 19.8955 77.2705 20.2568C77.0166 20.6084 76.7334 20.9307 76.4209 21.2236C76.1182 21.5166 75.7861 21.7607 75.4248 21.9561C75.0732 22.1514 74.7021 22.249 74.3115 22.249C73.8721 22.249 73.5156 22.166 73.2422 22C72.9688 21.8242 72.7539 21.5996 72.5977 21.3262C72.4414 21.043 72.334 20.7354 72.2754 20.4033C72.2266 20.0615 72.2021 19.7197 72.2021 19.3779C72.2021 19.2314 72.207 19.0654 72.2168 18.8799C72.2363 18.6943 72.2559 18.499 72.2754 18.2939C72.3047 18.0889 72.3242 17.8838 72.334 17.6787C72.3535 17.4736 72.3633 17.2783 72.3633 17.0928C72.3633 16.7803 72.3145 16.5703 72.2168 16.4629C72.1191 16.3457 72.0312 16.2871 71.9531 16.2871C71.7969 16.2871 71.6162 16.3799 71.4111 16.5654C71.2158 16.7412 71.0059 16.9756 70.7812 17.2686C70.5664 17.5615 70.3418 17.8936 70.1074 18.2646C69.8828 18.626 69.668 18.9873 69.4629 19.3486C69.2676 19.71 69.082 20.0566 68.9062 20.3887C68.7402 20.7109 68.6084 20.9795 68.5107 21.1943C68.3154 21.6045 68.1201 21.8779 67.9248 22.0146C67.7295 22.1611 67.5293 22.2344 67.3242 22.2344C67.041 22.2344 66.8115 22.1514 66.6357 21.9854C66.4697 21.8096 66.3867 21.5654 66.3867 21.2529C66.3867 21.1846 66.3965 21.0527 66.416 20.8574C66.4355 20.6523 66.46 20.4131 66.4893 20.1396C66.5186 19.8564 66.5479 19.5537 66.5771 19.2314C66.6064 18.9092 66.6357 18.5918 66.665 18.2793C66.6943 17.957 66.7188 17.6592 66.7383 17.3857C66.7578 17.1123 66.7676 16.8828 66.7676 16.6973C66.7676 16.4531 66.7578 16.2188 66.7383 15.9941C66.7188 15.7695 66.6797 15.6328 66.6211 15.584C66.5332 15.6133 66.377 15.7988 66.1523 16.1406C65.9277 16.4727 65.6396 17.0635 65.2881 17.9131C65.2393 18.0205 65.166 18.1035 65.0684 18.1621C64.9707 18.2207 64.8682 18.25 64.7607 18.25C64.5947 18.25 64.4629 18.1963 64.3652 18.0889C64.2676 17.9717 64.2188 17.8398 64.2188 17.6934C64.2188 17.625 64.2334 17.5518 64.2627 17.4736C64.7021 16.4287 65.1123 15.6621 65.4932 15.1738C65.8838 14.6758 66.2695 14.4268 66.6504 14.4268C66.875 14.4268 67.0654 14.4854 67.2217 14.6025C67.3779 14.71 67.5 14.8564 67.5879 15.042C67.6855 15.2275 67.7539 15.4326 67.793 15.6572C67.8418 15.8818 67.8662 16.1113 67.8662 16.3457C67.8662 16.5215 67.8516 16.7949 67.8223 17.166C67.8027 17.5371 67.7734 17.9375 67.7344 18.3672C67.6953 18.7871 67.6562 19.207 67.6172 19.627C67.5879 20.0469 67.5586 20.3984 67.5293 20.6816Z"/><path fill="#4FC9A5" d="M79.541 21.6484C79.541 21.6641 79.7051 21.5703 80.0332 21.3672C80.377 21.1641 80.7754 20.8984 81.2285 20.5703C81.6973 20.2266 82.1738 19.8594 82.6582 19.4688C83.1426 19.0625 83.541 18.6797 83.8535 18.3203C84.166 17.9609 84.3301 17.6562 84.3457 17.4062C84.377 17.1406 84.166 16.9688 83.7129 16.8906C83.1504 16.8125 82.6738 16.8203 82.2832 16.9141C81.9082 17.0078 81.5645 17.1172 81.252 17.2422C80.9395 17.3672 80.6426 17.4844 80.3613 17.5938C80.0957 17.7031 79.7988 17.7422 79.4707 17.7109C78.7832 17.7109 78.3066 17.5 78.041 17.0781C77.791 16.6406 77.666 16.0547 77.666 15.3203C77.666 14.5859 77.8301 13.8906 78.1582 13.2344C78.4863 12.5625 78.9082 11.9844 79.4238 11.5C79.9395 11.0156 80.5332 10.6328 81.2051 10.3516C81.877 10.0547 82.5645 9.90625 83.2676 9.90625C83.5488 9.90625 83.791 9.92969 83.9941 9.97656C84.1973 10.0234 84.2988 10.2031 84.2988 10.5156C84.2988 10.7344 84.2051 10.9453 84.0176 11.1484C83.8301 11.3359 83.6191 11.4297 83.3848 11.4297C83.3691 11.4297 83.3301 11.4219 83.2676 11.4062C83.2051 11.375 83.1426 11.3359 83.0801 11.2891C83.0176 11.2422 82.9551 11.2109 82.8926 11.1953C82.8301 11.1641 82.791 11.1484 82.7754 11.1484C82.2754 11.0078 81.791 11.0781 81.3223 11.3594C80.8535 11.6406 80.4316 12.0234 80.0566 12.5078C79.6973 12.9766 79.4082 13.4922 79.1895 14.0547C78.9707 14.6016 78.8613 15.0938 78.8613 15.5312C78.8613 15.7031 78.8926 15.8438 78.9551 15.9531C79.0332 16.0469 79.127 16.1172 79.2363 16.1641C79.3613 16.2109 79.4941 16.2422 79.6348 16.2578C79.791 16.2578 79.9473 16.2578 80.1035 16.2578C80.416 16.2578 80.7285 16.2109 81.041 16.1172C81.3691 16.0234 81.6816 15.9141 81.9785 15.7891C82.291 15.6641 82.6035 15.5547 82.916 15.4609C83.2441 15.3672 83.5801 15.3203 83.9238 15.3203C84.0801 15.3203 84.252 15.3672 84.4395 15.4609C84.627 15.5391 84.7988 15.6641 84.9551 15.8359C85.1113 15.9922 85.2441 16.1797 85.3535 16.3984C85.4629 16.6016 85.5254 16.8281 85.541 17.0781C85.6348 17.2969 85.6035 17.5859 85.4473 17.9453C85.3066 18.3047 85.0879 18.6875 84.791 19.0938C84.4941 19.5 84.1348 19.9141 83.7129 20.3359C83.291 20.7422 82.8691 21.1172 82.4473 21.4609C82.0254 21.7891 81.6113 22.0547 81.2051 22.2578C80.7988 22.4766 80.4551 22.5781 80.1738 22.5625C79.8613 22.5625 79.6738 22.4688 79.6113 22.2812C79.5645 22.0938 79.541 21.8828 79.541 21.6484ZM95.2526 11.7578C94.6745 11.5391 94.1198 11.625 93.5885 12.0156C93.0573 12.4062 92.5495 12.9609 92.0651 13.6797C91.5807 14.3828 91.1198 15.1875 90.6823 16.0938C90.2448 17 89.8385 17.8594 89.4635 18.6719C89.0885 19.4844 88.7448 20.1797 88.4323 20.7578C88.1354 21.3359 87.862 21.6562 87.612 21.7188C87.4245 21.7188 87.276 21.6875 87.1666 21.625C87.0729 21.5469 87.026 21.3672 87.026 21.0859V4.60938C87.026 4.46875 87.0807 4.38281 87.1901 4.35156C87.3151 4.32031 87.4479 4.3125 87.5885 4.32812C87.7291 4.34375 87.862 4.38281 87.987 4.44531C88.112 4.49219 88.1901 4.54688 88.2213 4.60938L88.526 17.8047C88.6979 17.5234 88.8541 17.1328 88.9948 16.6328C89.151 16.1172 89.3307 15.5703 89.5338 14.9922C89.737 14.3984 89.9713 13.8125 90.237 13.2344C90.5182 12.6406 90.862 12.1094 91.2682 11.6406C91.6745 11.1719 92.1666 10.8125 92.7448 10.5625C93.3385 10.2969 94.0338 10.2031 94.8307 10.2812C95.362 10.2812 95.7916 10.4531 96.1198 10.7969C96.4479 11.125 96.6198 11.5625 96.6354 12.1094L96.8698 21.4609C96.8698 21.5234 96.8541 21.6172 96.8229 21.7422C96.8073 21.8516 96.7448 21.9453 96.6354 22.0234C96.5416 22.1172 96.401 22.1719 96.2135 22.1875C96.0416 22.2188 95.8151 22.1797 95.5338 22.0703L95.2526 11.7578ZM98.7766 21.5312C98.7766 20.5156 98.7532 19.4453 98.7063 18.3203C98.6751 17.1953 98.636 16.0625 98.5891 14.9219C98.5579 13.7656 98.5501 12.6328 98.5657 11.5234C98.5813 10.4141 98.6516 9.375 98.7766 8.40625C98.8079 8.39062 98.8782 8.38281 98.9876 8.38281C99.1126 8.36719 99.1985 8.35938 99.2454 8.35938C99.4641 8.35938 99.636 8.39844 99.761 8.47656C99.9016 8.53906 99.972 8.6875 99.972 8.92188C99.972 9.84375 99.9641 10.8516 99.9485 11.9453C99.9485 13.0234 99.9407 14.125 99.9251 15.25C99.9251 16.3594 99.9251 17.4609 99.9251 18.5547C99.9251 19.6484 99.9407 20.6406 99.972 21.5312C99.9876 21.7969 99.9329 21.9688 99.8079 22.0469C99.6985 22.1406 99.5579 22.1875 99.386 22.1875C99.1985 22.1875 99.0423 22.1406 98.9173 22.0469C98.7923 21.9688 98.7454 21.7969 98.7766 21.5312ZM98.261 4.75C98.261 4.5625 98.3235 4.4375 98.4485 4.375C98.5735 4.3125 98.7141 4.28125 98.8704 4.28125C99.1829 4.28125 99.3782 4.38281 99.4563 4.58594C99.5345 4.78906 99.5735 5.02344 99.5735 5.28906C99.4798 5.46094 99.3626 5.58594 99.222 5.66406C99.0813 5.72656 98.9329 5.74219 98.7766 5.71094C98.636 5.66406 98.511 5.5625 98.4016 5.40625C98.3079 5.25 98.261 5.03125 98.261 4.75Z"/></svg>