<svg xmlns="http://www.w3.org/2000/svg" width="145" height="18" fill="none" viewBox="0 0 145 18"><path fill="#fff" fill-rule="evenodd" d="M0.43857 5.43934C1.02333 4.85355 1.97141 4.85355 2.55617 5.43934L12.5386 15.4393C13.1234 16.0251 13.1234 16.9749 12.5386 17.5607C11.9539 18.1464 11.0058 18.1464 10.421 17.5607L0.438569 7.56066C-0.14619 6.97487 -0.14619 6.02513 0.43857 5.43934Z" clip-rule="evenodd"/><path fill="#fff" fill-rule="evenodd" d="M1.44825e-07 1.5C1.44825e-07 0.671573 0.670396 0 1.49737 0H11.4798C12.3068 0 12.9772 0.671573 12.9772 1.5C12.9772 2.32843 12.3068 3 11.4798 3H1.49737C0.670396 3 1.44825e-07 2.32843 1.44825e-07 1.5Z" clip-rule="evenodd"/><path fill="#fff" fill-rule="evenodd" d="M2.99474 8L2.99474 16.5C2.99474 17.3284 2.32435 18 1.49737 18C0.670397 18 9.48523e-07 17.3284 9.12375e-07 16.5L1.19026e-07 6.5C1.01668e-07 6.10218 0.157759 5.72064 0.43857 5.43934C0.719381 5.15804 1.10024 5 1.49737 5L11.4798 5C12.3068 5 12.9772 5.67157 12.9772 6.5C12.9772 7.32843 12.3068 8 11.4798 8L2.99474 8Z" clip-rule="evenodd"/><path fill="#fff" d="M26.7483 14.8397L24.0086 9.99603H22.8344V14.8397H20.3438V2.40995H25.0049C25.9656 2.40995 26.7839 2.58209 27.46 2.92637C28.136 3.25878 28.6401 3.71585 28.9722 4.29757C29.3161 4.86741 29.4881 5.50849 29.4881 6.2208C29.4881 7.03995 29.2509 7.78194 28.7765 8.44676C28.302 9.09971 27.5964 9.55084 26.6594 9.80015L29.6304 14.8397H26.7483ZM22.8344 8.12623H24.9159C25.592 8.12623 26.096 7.96596 26.4281 7.64542C26.7602 7.31301 26.9262 6.85594 26.9262 6.27422C26.9262 5.70438 26.7602 5.26512 26.4281 4.95645C26.096 4.63591 25.592 4.47565 24.9159 4.47565H22.8344V8.12623Z"/><path fill="#fff" d="M40.9029 9.6933C40.9029 10.0495 40.8792 10.37 40.8318 10.6549H33.6266C33.6859 11.3672 33.935 11.9252 34.3738 12.3288C34.8126 12.7325 35.3523 12.9343 35.9927 12.9343C36.9178 12.9343 37.5761 12.5366 37.9675 11.7412H40.6539C40.3692 12.6909 39.8236 13.4745 39.0171 14.0918C38.2106 14.6973 37.2203 15 36.0461 15C35.0973 15 34.2433 14.7922 33.4843 14.3767C32.7371 13.9493 32.15 13.3498 31.723 12.5782C31.3079 11.8065 31.1003 10.9161 31.1003 9.90699C31.1003 8.88602 31.3079 7.9897 31.723 7.21803C32.1381 6.44636 32.7193 5.85277 33.4665 5.43726C34.2137 5.02175 35.0736 4.81399 36.0461 4.81399C36.9831 4.81399 37.8192 5.01581 38.5546 5.41945C39.3018 5.82309 39.877 6.39888 40.2802 7.1468C40.6954 7.88285 40.9029 8.73169 40.9029 9.6933ZM38.3233 8.98099C38.3114 8.33992 38.0802 7.82943 37.6295 7.44953C37.1788 7.05776 36.6273 6.86188 35.9749 6.86188C35.3582 6.86188 34.8364 7.05183 34.4094 7.43173C33.9943 7.79975 33.7393 8.31617 33.6444 8.98099H38.3233Z"/><path fill="#fff" d="M47.2397 7.02215H45.514V14.8397H42.9877V7.02215H41.8669V4.97426H42.9877V4.47565C42.9877 3.26472 43.3317 2.37434 44.0196 1.80449C44.7075 1.23464 45.7453 0.967527 47.1329 1.00314V3.10445C46.5281 3.09258 46.107 3.19349 45.8698 3.40718C45.6326 3.62088 45.514 4.00671 45.514 4.56468V4.97426H47.2397V7.02215Z"/><path fill="#fff" d="M53.2302 15C52.2814 15 51.4274 14.7922 50.6684 14.3767C49.9093 13.9493 49.3104 13.3498 48.8715 12.5782C48.4446 11.8065 48.2311 10.9161 48.2311 9.90699C48.2311 8.89789 48.4505 8.00751 48.8893 7.23584C49.34 6.46417 49.9508 5.87058 50.7218 5.45507C51.4927 5.02768 52.3526 4.81399 53.3014 4.81399C54.2502 4.81399 55.1101 5.02768 55.881 5.45507C56.6519 5.87058 57.2568 6.46417 57.6956 7.23584C58.1463 8.00751 58.3717 8.89789 58.3717 9.90699C58.3717 10.9161 58.1404 11.8065 57.6778 12.5782C57.2272 13.3498 56.6104 13.9493 55.8276 14.3767C55.0567 14.7922 54.1909 15 53.2302 15ZM53.2302 12.8275C53.6809 12.8275 54.102 12.7206 54.4933 12.5069C54.8966 12.2814 55.2168 11.9489 55.454 11.5097C55.6912 11.0704 55.8098 10.5362 55.8098 9.90699C55.8098 8.96912 55.5608 8.25088 55.0626 7.75226C54.5764 7.24178 53.9774 6.98653 53.2658 6.98653C52.5542 6.98653 51.9552 7.24178 51.469 7.75226C50.9945 8.25088 50.7573 8.96912 50.7573 9.90699C50.7573 10.8449 50.9886 11.569 51.4512 12.0795C51.9256 12.5782 52.5186 12.8275 53.2302 12.8275Z"/><path fill="#fff" d="M66.034 14.8397L62.6894 10.6371V14.8397H60.1987V1.66203H62.6894V9.15907L65.9984 4.97426H69.2363L64.8954 9.9248L69.2718 14.8397H66.034Z"/><path fill="#fff" d="M79.8925 4.97426V14.8397H77.384V13.5932C77.0638 14.0206 76.6428 14.3589 76.1209 14.6082C75.6109 14.8457 75.0535 14.9644 74.4486 14.9644C73.6777 14.9644 72.9957 14.8041 72.4027 14.4836C71.8097 14.1512 71.3412 13.6704 70.9972 13.0412C70.6652 12.4001 70.4991 11.6403 70.4991 10.7618V4.97426H72.9898V10.4056C72.9898 11.1892 73.1855 11.7946 73.5769 12.222C73.9683 12.6375 74.502 12.8453 75.178 12.8453C75.8659 12.8453 76.4056 12.6375 76.797 12.222C77.1884 11.7946 77.384 11.1892 77.384 10.4056V4.97426H79.8925Z"/><path fill="#fff" d="M86.1216 15C85.3151 15 84.5916 14.8575 83.9511 14.5726C83.3107 14.2758 82.8007 13.8781 82.4211 13.3795C82.0535 12.8809 81.8518 12.3288 81.8162 11.7234H84.3247C84.3722 12.1033 84.556 12.4179 84.8762 12.6672C85.2083 12.9165 85.6175 13.0412 86.1038 13.0412C86.5782 13.0412 86.9458 12.9462 87.2068 12.7562C87.4796 12.5663 87.616 12.3229 87.616 12.0261C87.616 11.7056 87.4499 11.4681 87.1178 11.3138C86.7976 11.1476 86.2817 10.9695 85.57 10.7796C84.8347 10.6015 84.2298 10.4175 83.7554 10.2275C83.2929 10.0376 82.8896 9.74673 82.5457 9.35496C82.2136 8.96319 82.0475 8.43489 82.0475 7.77007C82.0475 7.22397 82.2017 6.72535 82.5101 6.27422C82.8303 5.82309 83.281 5.46694 83.8622 5.20576C84.4552 4.94458 85.149 4.81399 85.9436 4.81399C87.1178 4.81399 88.0548 5.11079 88.7545 5.70438C89.4543 6.2861 89.8398 7.07557 89.9109 8.0728H87.527C87.4914 7.68103 87.3254 7.37237 87.0289 7.1468C86.7442 6.90936 86.3588 6.79065 85.8725 6.79065C85.4218 6.79065 85.0719 6.87375 84.8228 7.03996C84.5856 7.20616 84.467 7.43766 84.467 7.73446C84.467 8.06687 84.6331 8.32211 84.9652 8.50019C85.2973 8.66639 85.8132 8.83853 86.5129 9.01661C87.2246 9.19469 87.8117 9.3787 88.2742 9.56865C88.7368 9.7586 89.1341 10.0554 89.4662 10.459C89.8101 10.8508 89.988 11.3732 89.9999 12.0261C89.9999 12.596 89.8398 13.1064 89.5195 13.5576C89.2112 14.0087 88.7605 14.3649 88.1675 14.626C87.5863 14.8753 86.9043 15 86.1216 15Z"/><path fill="#fff" d="M99.6123 3.786H103.05V15H104.688V3.786H108.108V2.454H99.6123V3.786Z"/><path fill="#fff" d="M119.485 10.05C119.485 6.936 117.307 4.974 114.499 4.974C111.709 4.974 109.513 6.936 109.513 10.05C109.513 13.182 111.637 15.162 114.427 15.162C117.235 15.162 119.485 13.182 119.485 10.05ZM111.187 10.05C111.187 7.566 112.753 6.396 114.481 6.396C116.173 6.396 117.811 7.566 117.811 10.05C117.811 12.552 116.137 13.722 114.427 13.722C112.717 13.722 111.187 12.552 111.187 10.05Z"/><path fill="#fff" d="M130.998 10.05C130.998 6.936 128.82 4.974 126.012 4.974C123.222 4.974 121.026 6.936 121.026 10.05C121.026 13.182 123.15 15.162 125.94 15.162C128.748 15.162 130.998 13.182 130.998 10.05ZM122.7 10.05C122.7 7.566 124.266 6.396 125.994 6.396C127.686 6.396 129.324 7.566 129.324 10.05C129.324 12.552 127.65 13.722 125.94 13.722C124.23 13.722 122.7 12.552 122.7 10.05Z"/><path fill="#fff" d="M133.152 15H134.79V1.68H133.152V15Z"/><path fill="#fff" d="M144.674 12.318C144.602 8.79 138.878 10.068 138.878 7.728C138.878 6.936 139.598 6.36 140.804 6.36C142.118 6.36 142.874 7.08 142.946 8.07H144.584C144.476 6.144 143.036 4.974 140.858 4.974C138.662 4.974 137.24 6.216 137.24 7.728C137.24 11.4 143.072 10.122 143.072 12.318C143.072 13.128 142.352 13.776 141.056 13.776C139.67 13.776 138.824 13.056 138.734 12.102H137.042C137.15 13.902 138.77 15.162 141.074 15.162C143.252 15.162 144.674 13.938 144.674 12.318Z"/></svg>